<?xml version="1.0" encoding="utf-8"?>
<!-- Generator: Adobe Illustrator 21.0.0, SVG Export Plug-In . SVG Version: 6.00 Build 0)  -->
<svg version="1.0" id="Layer_1" xmlns="http://www.w3.org/2000/svg" xmlns:xlink="http://www.w3.org/1999/xlink" x="0px" y="0px"
	 viewBox="0 0 714 194" style="enable-background:new 0 0 714 194;" xml:space="preserve">
<style type="text/css">
	.st0{fill:#ED1C24;}
	.st1{fill:#FFFFFF;}
	.st2{fill:#ED1C24;stroke:#FFFFFF;stroke-width:8;stroke-miterlimit:10;}
	.st3{fill:#FFFFFF;stroke:#000000;stroke-miterlimit:10;}
</style>
<rect x="-581.1" y="-234.2" style="fill:none;" width="266.2" height="332.5"/>
<text transform="matrix(1 0 0 1 -581.1171 -201.0397)"><tspan x="0" y="0" style="font-family:'BerlinSansFB-Reg'; font-size:48px;">Rock</tspan><tspan x="0" y="57.6" style="font-family:'BerlinSansFB-Reg'; font-size:48px;">usic </tspan><tspan x="0" y="115.2" style="font-family:'BerlinSansFB-Reg'; font-size:48px;">Store</tspan></text>
<g>
	<g>
		<path d="M74.8,136.7c0,0.2-0.2,0.3-0.7,0.3c-0.5,0-1.3,0-2.4-0.1c-1.1-0.1-1.8-0.1-2.4-0.1c-0.6,0-1.4,0-2.5,0.1
			c-1.1,0.1-2,0.1-2.5,0.1c-0.6,0-1.1-0.3-1.4-1c-0.9-1.8-3.3-7.6-7.4-17.1c-0.4-1-1.4-1.6-3-1.8c-0.4,0-1.6,0-3.7,0
			c-3.7,0-6,0.1-6.7,0.2c-0.6,0.1-0.9,0.8-0.9,2.1c0,1.9,0.1,4.7,0.3,8.5c0.2,3.8,0.3,6.6,0.3,8.5c0,0.6-0.3,0.9-0.8,0.9
			c-0.5,0-1.4-0.1-2.5-0.2c-1.1-0.1-1.9-0.2-2.5-0.2c-0.5,0-1.2,0-2.1,0.1c-0.9,0.1-1.7,0.1-2.1,0.1c-0.7,0-1-0.3-1-0.9
			c0-3,0.1-7.5,0.4-13.6c0.3-6,0.4-10.6,0.4-13.6c0-8.6-0.3-17.7-0.9-27.4l0-0.7c0-0.5,0.5-0.8,1.7-0.8c2.3,0,5.8-0.1,10.5-0.2
			c4.7-0.1,8.1-0.2,10.4-0.2c6,0,10.9,1.4,14.5,4.3c4,3.2,6,7.7,6,13.5c0,4-0.5,7.2-1.6,9.5c-1.1,2.4-3.3,4.8-6.3,7
			c-0.5,0.4-0.8,0.7-0.8,1c0,0.4,1.6,4,4.9,10.8S74.8,136.2,74.8,136.7z M63.6,99.8c0-4.9-1.4-8.2-4.2-9.8
			c-2.1-1.2-5.8-1.8-11.3-1.8c-4.4,0-6.6,0.4-6.7,1.1c-0.2,1.5-0.3,5.4-0.3,11.8v7.8c0.1,0.1,0.3,0.1,0.5,0.2
			c0.5,0.1,1.3,0.1,2.4,0.2c2.6,0.1,5.4,0.2,8.3,0.2C59.9,109.2,63.6,106.1,63.6,99.8z"/>
		<path d="M117.1,117.2c0,5.7-1.9,10.5-5.6,14.5c-3.8,4.2-8.5,6.2-14.1,6.2c-5.6,0-10.4-2.1-14.2-6.2c-3.7-4-5.6-8.8-5.6-14.5
			c0-5.7,1.9-10.5,5.6-14.5c3.8-4.1,8.5-6.1,14.2-6.1c5.6,0,10.3,2,14.1,6.1C115.2,106.7,117.1,111.5,117.1,117.2z M108.5,117.2
			c0-3.3-1-6.1-3.1-8.5c-2.1-2.5-4.8-3.7-8.1-3.7s-6,1.2-8.1,3.7c-2,2.4-3.1,5.2-3.1,8.5c0,3.3,1,6.1,3.1,8.5
			c2.2,2.5,4.9,3.8,8.1,3.8c3.2,0,5.9-1.3,8.1-3.8C107.5,123.3,108.5,120.5,108.5,117.2z"/>
		<path d="M151.2,100.1c0,0.6-0.3,1.9-0.9,4c-0.6,2.1-1.1,3.1-1.3,3.1c-1.2-0.5-2.4-1.1-3.7-1.6s-2.6-0.8-4-0.8
			c-3.3,0-6.1,1.2-8.3,3.7s-3.3,5.4-3.3,8.7c0,3.3,1.1,6.2,3.3,8.6c2.3,2.5,5.1,3.7,8.3,3.7c1.8,0,3.6-0.4,5.4-1.3
			c1.8-0.9,2.5-1.3,2.3-1.3c0.4,0,0.7,1.1,1.2,3.4c0.4,2.1,0.6,3.5,0.6,4.3c0,0.8-1.6,1.7-4.8,2.5c-2.7,0.7-4.6,1-5.9,1
			c-5.6,0-10.3-2.1-14.2-6.3c-3.8-4.1-5.7-8.9-5.7-14.6c0-5.8,1.8-10.6,5.5-14.6c3.8-4.1,8.5-6.2,14.2-6.2c3.8,0,7.3,1,10.4,2.9
			C150.9,99.5,151.2,99.8,151.2,100.1z"/>
		<path d="M196.3,109.1c0,7.1-3.3,11.8-9.8,14.2c0,1.4,2.7,5.7,8.1,12.9c0,0.4-1.4,0.7-4.1,0.8c-1.8,0.1-3.1,0.1-4,0.1
			c-1.9,0-3.1-0.4-3.6-1.2c-1.3-2.2-3.3-5.3-6-9.5c-0.3-0.5-3.3-0.7-8.8-0.6l-1.6,0v10.1c0,0.8-0.3,1.3-0.9,1.3c-0.9,0-2.1,0-3.8,0
			c-1.7,0-3,0-3.8,0c-0.6,0-0.9-0.5-0.9-1.6v-25.3c0-3.3-0.1-8.3-0.4-14.9c-0.3-6.6-0.4-11.5-0.4-14.9c0-0.5,0.3-0.8,0.8-0.8
			c0.9,0,2.3-0.1,4.1-0.2c0.4,0,1.2-0.1,2.4-0.3c1-0.1,1.8-0.2,2.4-0.2c0.4,0,0.6,0.3,0.6,1c0,1.5-0.1,3.6-0.2,6.6
			c-0.1,2.9-0.2,5.1-0.2,6.6v10.5c0,0.6,0.1,0.9,0.4,0.9c0.7-0.5,1.6-1.3,2.9-2.4c4.6-3.5,8.9-5.3,13-5.3c4,0,7.3,1,9.8,3.1
			C194.9,102.1,196.3,105.2,196.3,109.1z M186.5,111c0-3.9-2.5-5.8-7.5-5.8c-3.7,0-8,2.5-12.7,7.5v6.1c2.2,0.4,4.9,0.6,8,0.6
			c3.1,0,5.8-0.6,8.1-1.8C185.1,116,186.5,113.9,186.5,111z"/>
	</g>
	<g>
		<path d="M413.2,100.1c0,2-0.1,5-0.2,9c-0.2,4-0.2,7-0.2,9c0,2,0.1,4.9,0.2,8.9c0.1,3.9,0.2,6.9,0.2,8.9c0,0.5-0.3,0.9-0.8,1.1
			c-0.2,0.1-3,0.1-8.3,0.1c-0.3,0-0.5-1-0.6-3.1c-0.1-2-0.2-3.1-0.5-3.1c-0.1,0-0.3,0.1-0.6,0.4c-4.5,3.9-9,5.9-13.4,5.9
			c-6,0-10-2.2-11.9-6.5c-1.2-2.7-1.8-7.5-1.8-14.5c0-6.3,0.5-11.6,1.5-16c0.2-1.1,0.7-1.6,1.3-1.6c0.8,0,2,0,3.5,0
			c1.6,0,2.8,0,3.5,0c0.5,0,0.8,0.3,0.8,0.9c0,1.1-0.2,2.8-0.5,5.3c-0.4,2.6-0.6,4.5-0.6,5.6c-0.1,1.6-0.1,3.4-0.1,5.4
			c0,4.7,0.3,7.9,1,9.6c1.2,2.9,3.8,4.4,7.8,4.4c1.7,0,3.7-0.8,6.1-2.5c2.5-1.8,3.7-3.5,3.8-5.1c0.1-2,0.2-9.2,0.2-21.5
			c0-1.3,0.6-2,1.7-2h6.7C412.8,98.7,413.2,99.1,413.2,100.1z"/>
		<path d="M440.5,124.4c0,4-1.6,7.3-4.8,9.7c-2.9,2.2-6.5,3.3-10.7,3.3c-1.6,0-2.5,0-2.8-0.1c-0.5-0.2-0.7-0.9-0.7-2
			c0-0.6-0.1-1.5-0.2-2.7c-0.1-1.2-0.2-2.1-0.2-2.6c0-0.4,0.2-0.6,0.7-0.7c0.4-0.1,0.9-0.1,1.5,0c0.8,0.1,1.2,0.1,1.2,0.1
			c5.1,0,7.7-1.6,7.7-4.7c0-1.5-1.1-2.9-3.4-4.1c-3.7-2-5.8-3.2-6.3-3.7c-2.3-1.9-3.4-4.4-3.4-7.6c0-4.1,1.5-7.2,4.6-9.5
			c2.8-2,6.3-3.1,10.5-3.1c0.4,0,0.7,0.2,0.8,0.5c0.2,0.4,0.5,1.5,1,3.3c0.5,1.8,0.8,3,0.8,3.3c0,0.3-0.3,0.5-0.8,0.6
			c-1.7,0.2-3.5,0.5-5.2,0.7c-2.1,0.6-3.1,1.7-3.1,3.4c0,1.2,1.1,2.5,3.3,3.7c3.3,1.8,5.3,3.1,6.2,3.9
			C439.4,118.4,440.5,121.1,440.5,124.4z"/>
		<path d="M457,88.3c0,3.3-1.9,5-5.6,5c-3.8,0-5.7-1.7-5.7-5c0-1.5,0.6-2.7,1.7-3.7c1.1-0.9,2.4-1.4,3.9-1.4s2.8,0.5,3.9,1.4
			S457,86.8,457,88.3z M456.7,99.3c0,2.1-0.1,5.2-0.4,9.5s-0.4,7.4-0.4,9.5c0,2,0,4.9,0.1,8.9c0.1,3.9,0.1,6.9,0.1,8.9
			c0,0.6-0.2,0.9-0.7,0.9h-7.9c-0.6,0-0.9-0.6-0.9-1.7c0-1.9,0-4.7,0.1-8.4s0.1-6.6,0.1-8.5c0-2.1-0.2-5.3-0.5-9.5
			c-0.3-4.2-0.5-7.4-0.5-9.5c0-0.5,0.3-0.7,0.9-0.7c0.5,0,1.2,0.1,2.3,0.2c1,0.1,1.8,0.2,2.3,0.2c0.5,0,1.3-0.1,2.3-0.2
			c1-0.1,1.8-0.2,2.3-0.2C456.4,98.6,456.7,98.8,456.7,99.3z"/>
		<path d="M493.1,100.1c0,0.6-0.3,1.9-0.9,4c-0.6,2.1-1.1,3.1-1.3,3.1c-1.2-0.5-2.4-1.1-3.7-1.6c-1.2-0.5-2.6-0.8-4-0.8
			c-3.3,0-6.1,1.2-8.3,3.7s-3.3,5.4-3.3,8.7c0,3.3,1.1,6.2,3.3,8.6c2.3,2.5,5.1,3.7,8.3,3.7c1.8,0,3.6-0.4,5.4-1.3
			c1.8-0.9,2.5-1.3,2.3-1.3c0.4,0,0.7,1.1,1.2,3.4c0.4,2.1,0.6,3.5,0.6,4.3c0,0.8-1.6,1.7-4.8,2.5c-2.7,0.7-4.6,1-5.9,1
			c-5.6,0-10.3-2.1-14.2-6.3c-3.8-4.1-5.7-8.9-5.7-14.6c0-5.8,1.8-10.6,5.5-14.6c3.8-4.1,8.5-6.2,14.2-6.2c3.8,0,7.3,1,10.4,2.9
			C492.9,99.5,493.1,99.8,493.1,100.1z"/>
	</g>
	<g>
		<path d="M536.7,84c-0.5,0.9-1.3,2.3-2.2,4.1c-0.3,0.8-0.8,2-1.6,3.6c-0.2,0.2-0.4,0.4-0.7,0.4c0,0-1.3-0.5-3.9-1.4
			c-2.6-1-4.8-1.4-6.5-1.4c-5,0-7.5,2.2-7.5,6.6c0,2.4,1.7,4.6,5.2,6.4c5.9,3.1,9.1,4.8,9.8,5.3c3.5,2.8,5.2,6.6,5.2,11.3
			c0,6.1-2.4,10.9-7.2,14.4c-4.3,3.1-9.6,4.7-15.9,4.7c-2.9,0-4.5-0.3-4.7-1c-0.1-1-0.4-2.5-0.7-4.5c-0.2-0.8-0.6-2-1-3.7
			c-0.1-0.2-0.1-0.5-0.1-0.7c0-0.4,0.2-0.6,0.6-0.6c0.7,0,1.6,0.1,3,0.2c1.3,0.1,2.4,0.2,3,0.2c8.4,0,12.6-2.7,12.6-8.1
			c0-2.7-1.7-5-5.1-6.9c-6.2-3.5-9.3-5.4-9.5-5.5c-3.4-2.8-5.1-6.5-5.1-11.1c0-5,1.7-9.1,5-12.1c3.2-2.9,7.4-4.4,12.5-4.4
			c2.2,0,4.7,0.4,7.5,1.1c3.1,0.8,5.4,1.7,6.9,2.8C536.4,83.6,536.6,83.8,536.7,84z"/>
		<path d="M565.6,129.5c0,0.6-0.1,1.4-0.2,2.4c-0.1,1.3-0.2,2.1-0.2,2.5c0,0.5-0.1,0.8-0.1,0.9c-0.1,0.2-0.4,0.4-0.8,0.6
			c-2.2,1.1-5.7,1.6-10.5,1.6c-6.3,0-9.5-2.9-9.5-8.6c0-2.3,0.1-5.8,0.2-10.4c0.1-4.6,0.2-8.1,0.2-10.4c0-1.1-0.6-1.7-1.7-1.8
			c-1,0-2,0-3,0c-0.6-0.1-0.9-1.2-0.9-3.3c0-0.8,0.1-1.6,0.2-2.5c0.1-0.7,0.5-1,1.3-1.2c0.7,0,1.3,0,2,0c1.2-0.1,1.9-0.6,1.9-1.7
			c0-1.1,0-2.7-0.1-5s-0.1-3.9-0.1-5c0-2,0.4-3,1.1-3c0.2,0,2.8,0.4,7.6,1.3c0.6,0.1,0.9,0.4,0.9,0.9c0,1.2-0.1,3-0.3,5.4
			s-0.3,4.2-0.3,5.4c0,0.8,0.4,1.2,1.1,1.2h9.8c0.5,0,0.7,0.2,0.7,0.5c0,0.3,0,0.8-0.1,1.6c-0.1,0.7-0.1,1.3-0.1,1.6
			c0,0.4,0,1,0,1.9s0,1.5,0,1.9c0,0.5-0.4,0.8-1.1,0.8c-1.1,0-2.7-0.1-4.9-0.2c-2.2-0.1-3.8-0.2-4.9-0.2c-0.2,0-0.4,0.8-0.5,2.3
			c-0.1,1.9-0.2,4.6-0.2,8.1v6.1c0,2.3,0.2,4,0.7,4.9c0.7,1.4,2,2.1,4,2.1c0.8,0,2.1-0.2,3.7-0.5c1.6-0.4,2.8-0.5,3.6-0.5
			C565.4,128.8,565.6,129,565.6,129.5z"/>
		<path d="M608.3,117.2c0,5.7-1.9,10.5-5.6,14.5c-3.8,4.2-8.5,6.2-14.1,6.2c-5.6,0-10.4-2.1-14.2-6.2c-3.7-4-5.6-8.8-5.6-14.5
			c0-5.7,1.9-10.5,5.6-14.5c3.8-4.1,8.5-6.1,14.2-6.1c5.6,0,10.3,2,14.1,6.1C606.4,106.7,608.3,111.5,608.3,117.2z M599.7,117.2
			c0-3.3-1-6.1-3.1-8.5c-2.1-2.5-4.8-3.7-8.1-3.7s-6,1.2-8.1,3.7c-2,2.4-3.1,5.2-3.1,8.5c0,3.3,1,6.1,3.1,8.5
			c2.2,2.5,4.9,3.8,8.1,3.8c3.2,0,5.9-1.3,8.1-3.8C598.7,123.3,599.7,120.5,599.7,117.2z"/>
		<path d="M637.3,98.8c0,3-0.2,5.7-0.6,8.1c-0.1,0.6-0.4,0.9-0.8,0.9c-0.6,0-1.4-0.1-2.6-0.2c-1.2-0.1-2-0.2-2.6-0.2
			c-3.4,0-5.6,1-6.6,2.9c-0.6,1.2-0.9,3.6-0.9,7.3v4.5c0,1.5,0.1,3.8,0.2,6.9c0.1,3.1,0.2,5.4,0.2,6.9c0,0.7-0.3,1.1-0.9,1.1
			c-0.8,0-2.1,0-3.8,0s-3,0-3.8,0c-0.6,0-0.9-0.3-0.9-1c0-2.2,0-5.5,0.1-9.9c0.1-4.4,0.1-7.7,0.1-10c0-6.7-0.6-12.1-1.9-16.2
			c-0.1-0.2-0.1-0.4-0.1-0.5c0-0.3,0.2-0.6,0.5-0.7c1-0.1,2.4-0.3,4.2-0.5c2.9-0.5,4.3-0.8,4.1-0.8c0.4,0,0.7,0.8,0.9,2.4
			c0.1,1.6,0.4,2.4,0.7,2.4c0.1,0,0.1,0,0.2-0.1c1.1-0.7,2.2-1.4,3.3-2.1c1.2-0.7,2.5-1.3,3.7-1.6c1.1-0.3,2.4-0.5,4.1-0.5
			C636.2,97.9,637.3,98.2,637.3,98.8z"/>
		<path d="M676.2,115.1c0,2-0.9,3.4-2.6,4c-1.2,0.4-9.6,1.2-25.2,2.4c0.4,2.4,1.7,4.4,3.9,6.1c2.2,1.6,4.5,2.4,7,2.4
			c4.3,0,8.2-1.4,11.8-4.2c0.4-0.4,0.9-0.7,1.3-1.1c0.2,0,0.4,0,0.4,0.1c0.1,0.1,0.6,1,1.5,2.8c0.9,1.8,1.4,2.8,1.4,3
			c0,0.2-0.2,0.5-0.7,0.9c-4,4.2-9.1,6.3-15.3,6.3c-6.3,0-11.3-1.9-15.1-5.6s-5.6-8.8-5.6-15c0-5.6,1.8-10.5,5.4-14.6
			c3.8-4.3,8.4-6.5,13.9-6.5c5.1,0,9.4,1.9,12.8,5.6C674.6,105.5,676.2,109.9,676.2,115.1z M666.5,112.6c0-2.3-0.9-4.2-2.7-6
			s-3.8-2.6-6-2.6c-2.5,0-4.7,1-6.7,3c-1.9,2-2.9,4.3-2.9,6.8c0,0.6,0.5,0.9,1.5,0.9c4,0,8.8-0.4,14.4-1.2
			C665.8,113.2,666.5,113,666.5,112.6z"/>
	</g>
</g>
<g>
	<rect x="231.3" y="38.4" class="st0" width="4.9" height="117.1"/>
</g>
<g>
	<rect x="289.2" y="38.4" class="st0" width="4.9" height="117.1"/>
</g>
<g>
	<rect x="345.9" y="38.4" class="st0" width="4.9" height="117.1"/>
</g>
<g>
	<rect x="223.2" y="55.4" class="st0" width="20.3" height="20.3"/>
	<path class="st1" d="M245.5,77.6h-24.1V53.5h24.1V77.6z M225.1,73.8h16.5V57.3h-16.5V73.8z"/>
</g>
<g>
	<rect x="280.6" y="99.8" class="st0" width="20.3" height="20.3"/>
	<path class="st1" d="M302.8,122.1h-24.1V97.9h24.1V122.1z M282.5,118.3H299v-16.5h-16.5V118.3z"/>
</g>
<g>
	<rect x="338.2" y="55.4" class="st0" width="20.3" height="20.3"/>
	<path class="st1" d="M360.5,77.6h-24.1V53.5h24.1V77.6z M340.1,73.8h16.5V57.3h-16.5V73.8z"/>
</g>
<rect x="-638.3" y="21.1" class="st0" width="10.4" height="246.8"/>
<rect x="-516.2" y="21.1" class="st0" width="10.4" height="246.8"/>
<rect x="-396.7" y="21.1" class="st0" width="10.4" height="246.8"/>
<rect x="-655.1" y="50.5" class="st2" width="42.9" height="42.9"/>
<rect x="-534.3" y="123.1" class="st2" width="42.9" height="42.9"/>
<rect x="-412.9" y="50.5" class="st2" width="42.9" height="42.9"/>
<g>
	<path class="st3" d="M79.8,130.8c0,0.2-0.2,0.3-0.7,0.3c-0.5,0-1.3,0-2.4-0.1c-1.1-0.1-1.8-0.1-2.4-0.1c-0.6,0-1.4,0-2.5,0.1
		c-1.1,0.1-2,0.1-2.5,0.1c-0.6,0-1.1-0.3-1.4-1c-0.9-1.8-3.3-7.6-7.4-17.1c-0.4-1-1.4-1.6-3-1.8c-0.4,0-1.6,0-3.7,0
		c-3.7,0-6,0.1-6.7,0.2c-0.6,0.1-0.9,0.8-0.9,2.1c0,1.9,0.1,4.7,0.3,8.5c0.2,3.8,0.3,6.6,0.3,8.5c0,0.6-0.3,0.9-0.8,0.9
		c-0.5,0-1.4-0.1-2.5-0.2c-1.1-0.1-1.9-0.2-2.5-0.2c-0.5,0-1.2,0-2.1,0.1c-0.9,0.1-1.7,0.1-2.1,0.1c-0.7,0-1-0.3-1-0.9
		c0-3,0.1-7.5,0.4-13.6s0.4-10.6,0.4-13.6c0-8.6-0.3-17.7-0.9-27.4l0-0.7c0-0.5,0.5-0.8,1.7-0.8c2.3,0,5.8-0.1,10.5-0.2
		c4.7-0.1,8.1-0.2,10.4-0.2c6,0,10.9,1.4,14.5,4.3c4,3.2,6,7.7,6,13.5c0,4-0.5,7.2-1.6,9.5c-1.1,2.4-3.3,4.8-6.3,7
		c-0.5,0.4-0.8,0.7-0.8,1c0,0.4,1.6,4,4.9,10.8S79.8,130.4,79.8,130.8z M68.6,93.9c0-4.9-1.4-8.2-4.2-9.8c-2.1-1.2-5.8-1.8-11.3-1.8
		c-4.4,0-6.6,0.4-6.7,1.1c-0.2,1.5-0.3,5.4-0.3,11.8v7.8c0.1,0.1,0.3,0.1,0.5,0.2c0.5,0.1,1.3,0.1,2.4,0.2c2.6,0.1,5.4,0.2,8.3,0.2
		C64.9,103.4,68.6,100.2,68.6,93.9z"/>
	<path class="st3" d="M122.1,111.3c0,5.7-1.9,10.5-5.6,14.5c-3.8,4.2-8.5,6.2-14.1,6.2c-5.6,0-10.4-2.1-14.2-6.2
		c-3.7-4-5.6-8.8-5.6-14.5c0-5.7,1.9-10.5,5.6-14.5c3.8-4.1,8.5-6.1,14.2-6.1c5.6,0,10.3,2,14.1,6.1
		C120.2,100.9,122.1,105.7,122.1,111.3z M113.5,111.4c0-3.3-1-6.1-3.1-8.5c-2.1-2.5-4.8-3.7-8.1-3.7s-6,1.2-8.1,3.7
		c-2,2.4-3.1,5.2-3.1,8.5c0,3.3,1,6.1,3.1,8.5c2.2,2.5,4.9,3.8,8.1,3.8c3.2,0,5.9-1.3,8.1-3.8C112.5,117.5,113.5,114.6,113.5,111.4z
		"/>
	<path class="st3" d="M156.2,94.2c0,0.6-0.3,1.9-0.9,4s-1.1,3.1-1.3,3.1c-1.2-0.5-2.4-1.1-3.7-1.6s-2.6-0.8-4-0.8
		c-3.3,0-6.1,1.2-8.3,3.7s-3.3,5.4-3.3,8.7c0,3.3,1.1,6.2,3.3,8.6c2.3,2.5,5.1,3.7,8.3,3.7c1.8,0,3.6-0.4,5.4-1.3
		c1.8-0.9,2.5-1.3,2.3-1.3c0.4,0,0.7,1.1,1.2,3.4c0.4,2.1,0.6,3.5,0.6,4.3c0,0.8-1.6,1.7-4.8,2.5c-2.7,0.7-4.6,1-5.9,1
		c-5.6,0-10.3-2.1-14.2-6.3c-3.8-4.1-5.7-8.9-5.7-14.6c0-5.8,1.8-10.6,5.5-14.6c3.8-4.1,8.5-6.2,14.2-6.2c3.8,0,7.3,1,10.4,2.9
		C155.9,93.7,156.2,94,156.2,94.2z"/>
	<path class="st3" d="M201.3,103.2c0,7.1-3.3,11.8-9.8,14.2c0,1.4,2.7,5.7,8.1,12.9c0,0.4-1.4,0.7-4.1,0.8c-1.8,0.1-3.1,0.1-4,0.1
		c-1.9,0-3.1-0.4-3.6-1.2c-1.3-2.2-3.3-5.3-6-9.5c-0.3-0.5-3.3-0.7-8.8-0.6l-1.6,0V130c0,0.8-0.3,1.3-0.9,1.3c-0.9,0-2.1,0-3.8,0
		c-1.7,0-3,0-3.8,0c-0.6,0-0.9-0.5-0.9-1.6v-25.3c0-3.3-0.1-8.3-0.4-14.9c-0.3-6.6-0.4-11.5-0.4-14.9c0-0.5,0.3-0.8,0.8-0.8
		c0.9,0,2.3-0.1,4.1-0.2c0.4,0,1.2-0.1,2.4-0.3c1-0.1,1.8-0.2,2.4-0.2c0.4,0,0.6,0.3,0.6,1c0,1.5-0.1,3.6-0.2,6.6
		c-0.1,2.9-0.2,5.1-0.2,6.6v10.5c0,0.6,0.1,0.9,0.4,0.9c0.7-0.5,1.6-1.3,2.9-2.4c4.6-3.5,8.9-5.3,13-5.3c4,0,7.3,1,9.8,3.1
		C199.9,96.2,201.3,99.3,201.3,103.2z M191.5,105.1c0-3.9-2.5-5.8-7.5-5.8c-3.7,0-8,2.5-12.7,7.5v6.1c2.2,0.4,4.9,0.6,8,0.6
		c3.1,0,5.8-0.6,8.1-1.8C190.1,110.2,191.5,108,191.5,105.1z"/>
</g>
<g>
	<path class="st3" d="M415.3,94.7c0,2-0.1,5-0.2,9c-0.2,4-0.2,7-0.2,9c0,2,0.1,4.9,0.2,8.9c0.1,3.9,0.2,6.9,0.2,8.9
		c0,0.5-0.3,0.9-0.8,1.1c-0.2,0.1-3,0.1-8.3,0.1c-0.3,0-0.5-1-0.6-3.1c-0.1-2-0.2-3.1-0.5-3.1c-0.1,0-0.3,0.1-0.6,0.4
		c-4.5,3.9-9,5.9-13.4,5.9c-6,0-10-2.2-11.9-6.5c-1.2-2.7-1.8-7.5-1.8-14.5c0-6.3,0.5-11.6,1.5-16c0.2-1.1,0.7-1.6,1.3-1.6
		c0.8,0,2,0,3.5,0c1.6,0,2.8,0,3.5,0c0.5,0,0.8,0.3,0.8,0.9c0,1.1-0.2,2.8-0.5,5.3c-0.4,2.6-0.6,4.5-0.6,5.6
		c-0.1,1.6-0.1,3.4-0.1,5.4c0,4.7,0.3,7.9,1,9.6c1.2,2.9,3.8,4.4,7.8,4.4c1.7,0,3.7-0.8,6.1-2.5c2.5-1.8,3.7-3.5,3.8-5.1
		c0.1-2,0.2-9.2,0.2-21.5c0-1.3,0.6-2,1.7-2h6.7C414.9,93.3,415.3,93.8,415.3,94.7z"/>
	<path class="st3" d="M442.6,119.1c0,4-1.6,7.3-4.8,9.7c-2.9,2.2-6.5,3.3-10.7,3.3c-1.6,0-2.5,0-2.8-0.1c-0.5-0.2-0.7-0.9-0.7-2
		c0-0.6-0.1-1.5-0.2-2.7c-0.1-1.2-0.2-2.1-0.2-2.6c0-0.4,0.2-0.6,0.7-0.7c0.4-0.1,0.9-0.1,1.5,0c0.8,0.1,1.2,0.1,1.2,0.1
		c5.1,0,7.7-1.6,7.7-4.7c0-1.5-1.1-2.9-3.4-4.1c-3.7-2-5.8-3.2-6.3-3.7c-2.3-1.9-3.4-4.4-3.4-7.6c0-4.1,1.5-7.2,4.6-9.5
		c2.8-2,6.3-3.1,10.5-3.1c0.4,0,0.7,0.2,0.8,0.5c0.2,0.4,0.5,1.5,1,3.3s0.8,3,0.8,3.3c0,0.3-0.3,0.5-0.8,0.6
		c-1.7,0.2-3.5,0.5-5.2,0.7c-2.1,0.6-3.1,1.7-3.1,3.4c0,1.2,1.1,2.5,3.3,3.7c3.3,1.8,5.3,3.1,6.2,3.9
		C441.5,113.1,442.6,115.8,442.6,119.1z"/>
	<path class="st3" d="M459.1,82.9c0,3.3-1.9,5-5.6,5c-3.8,0-5.7-1.7-5.7-5c0-1.5,0.6-2.7,1.7-3.7c1.1-0.9,2.4-1.4,3.9-1.4
		s2.8,0.5,3.9,1.4S459.1,81.5,459.1,82.9z M458.8,94c0,2.1-0.1,5.2-0.4,9.5c-0.3,4.2-0.4,7.4-0.4,9.5c0,2,0,4.9,0.1,8.9
		c0.1,3.9,0.1,6.9,0.1,8.9c0,0.6-0.2,0.9-0.7,0.9h-7.9c-0.6,0-0.9-0.6-0.9-1.7c0-1.9,0-4.7,0.1-8.4c0.1-3.8,0.1-6.6,0.1-8.5
		c0-2.1-0.2-5.3-0.5-9.5c-0.3-4.2-0.5-7.4-0.5-9.5c0-0.5,0.3-0.7,0.9-0.7c0.5,0,1.2,0.1,2.3,0.2c1,0.1,1.8,0.2,2.3,0.2
		s1.3-0.1,2.3-0.2c1-0.1,1.8-0.2,2.3-0.2C458.6,93.2,458.8,93.5,458.8,94z"/>
	<path class="st3" d="M495.3,94.7c0,0.6-0.3,1.9-0.9,4s-1.1,3.1-1.3,3.1c-1.2-0.5-2.4-1.1-3.7-1.6c-1.2-0.5-2.6-0.8-4-0.8
		c-3.3,0-6.1,1.2-8.3,3.7s-3.3,5.4-3.3,8.7c0,3.3,1.1,6.2,3.3,8.6c2.3,2.5,5.1,3.7,8.3,3.7c1.8,0,3.6-0.4,5.4-1.3
		c1.8-0.9,2.5-1.3,2.3-1.3c0.4,0,0.7,1.1,1.2,3.4c0.4,2.1,0.6,3.5,0.6,4.3c0,0.8-1.6,1.7-4.8,2.5c-2.7,0.7-4.6,1-5.9,1
		c-5.6,0-10.3-2.1-14.2-6.3c-3.8-4.1-5.7-8.9-5.7-14.6c0-5.8,1.8-10.6,5.5-14.6c3.8-4.1,8.5-6.2,14.2-6.2c3.8,0,7.3,1,10.4,2.9
		C495,94.2,495.3,94.5,495.3,94.7z"/>
</g>
<g>
	<path class="st3" d="M538.8,78.6c-0.5,0.9-1.3,2.3-2.2,4.1c-0.3,0.8-0.8,2-1.6,3.6c-0.2,0.2-0.4,0.4-0.7,0.4c0,0-1.3-0.5-3.9-1.4
		c-2.6-1-4.8-1.4-6.5-1.4c-5,0-7.5,2.2-7.5,6.6c0,2.4,1.7,4.6,5.2,6.4c5.9,3.1,9.1,4.8,9.8,5.3c3.5,2.8,5.2,6.6,5.2,11.3
		c0,6.1-2.4,10.9-7.2,14.4c-4.3,3.1-9.6,4.7-15.9,4.7c-2.9,0-4.5-0.3-4.7-1c-0.1-1-0.4-2.5-0.7-4.5c-0.2-0.8-0.6-2-1-3.7
		c-0.1-0.2-0.1-0.5-0.1-0.7c0-0.4,0.2-0.6,0.6-0.6c0.7,0,1.6,0.1,3,0.2c1.3,0.1,2.4,0.2,3,0.2c8.4,0,12.6-2.7,12.6-8.1
		c0-2.7-1.7-5-5.1-6.9c-6.2-3.5-9.3-5.4-9.5-5.5c-3.4-2.8-5.1-6.5-5.1-11.1c0-5,1.7-9.1,5-12.1c3.2-2.9,7.4-4.4,12.5-4.4
		c2.2,0,4.7,0.4,7.5,1.1c3.1,0.8,5.4,1.7,6.9,2.8C538.6,78.2,538.7,78.4,538.8,78.6z"/>
	<path class="st3" d="M567.7,124.1c0,0.6-0.1,1.4-0.2,2.4c-0.1,1.3-0.2,2.1-0.2,2.5c0,0.5-0.1,0.8-0.1,0.9c-0.1,0.2-0.4,0.4-0.8,0.6
		c-2.2,1.1-5.7,1.6-10.5,1.6c-6.3,0-9.5-2.9-9.5-8.6c0-2.3,0.1-5.8,0.2-10.4s0.2-8.1,0.2-10.4c0-1.1-0.6-1.7-1.7-1.8c-1,0-2,0-3,0
		c-0.6-0.1-0.9-1.2-0.9-3.3c0-0.8,0.1-1.6,0.2-2.5c0.1-0.7,0.5-1,1.3-1.2c0.7,0,1.3,0,2,0c1.2-0.1,1.9-0.6,1.9-1.7
		c0-1.1,0-2.7-0.1-5s-0.1-3.9-0.1-5c0-2,0.4-3,1.1-3c0.2,0,2.8,0.4,7.6,1.3c0.6,0.1,0.9,0.4,0.9,0.9c0,1.2-0.1,3-0.3,5.4
		s-0.3,4.2-0.3,5.4c0,0.8,0.4,1.2,1.1,1.2h9.8c0.5,0,0.7,0.2,0.7,0.5s0,0.8-0.1,1.6c-0.1,0.7-0.1,1.3-0.1,1.6c0,0.4,0,1,0,1.9
		c0,0.8,0,1.5,0,1.9c0,0.5-0.4,0.8-1.1,0.8c-1.1,0-2.7-0.1-4.9-0.2c-2.2-0.1-3.8-0.2-4.9-0.2c-0.2,0-0.4,0.8-0.5,2.3
		c-0.1,1.9-0.2,4.6-0.2,8.1v6.1c0,2.3,0.2,4,0.7,4.9c0.7,1.4,2,2.1,4,2.1c0.8,0,2.1-0.2,3.7-0.5c1.6-0.4,2.8-0.5,3.6-0.5
		C567.6,123.4,567.7,123.6,567.7,124.1z"/>
	<path class="st3" d="M610.4,111.8c0,5.7-1.9,10.5-5.6,14.5c-3.8,4.2-8.5,6.2-14.1,6.2c-5.6,0-10.4-2.1-14.2-6.2
		c-3.7-4-5.6-8.8-5.6-14.5s1.9-10.5,5.6-14.5c3.8-4.1,8.5-6.1,14.2-6.1c5.6,0,10.3,2,14.1,6.1C608.5,101.4,610.4,106.2,610.4,111.8z
		 M601.8,111.9c0-3.3-1-6.1-3.1-8.5c-2.1-2.5-4.8-3.7-8.1-3.7s-6,1.2-8.1,3.7c-2,2.4-3.1,5.2-3.1,8.5c0,3.3,1,6.1,3.1,8.5
		c2.2,2.5,4.9,3.8,8.1,3.8c3.2,0,5.9-1.3,8.1-3.8C600.8,118,601.8,115.1,601.8,111.9z"/>
	<path class="st3" d="M639.4,93.4c0,3-0.2,5.7-0.6,8.1c-0.1,0.6-0.4,0.9-0.8,0.9c-0.6,0-1.4-0.1-2.6-0.2c-1.2-0.1-2-0.2-2.6-0.2
		c-3.4,0-5.6,1-6.6,2.9c-0.6,1.2-0.9,3.6-0.9,7.3v4.5c0,1.5,0.1,3.8,0.2,6.9c0.1,3.1,0.2,5.4,0.2,6.9c0,0.7-0.3,1.1-0.9,1.1
		c-0.8,0-2.1,0-3.8,0c-1.7,0-3,0-3.8,0c-0.6,0-0.9-0.3-0.9-1c0-2.2,0-5.5,0.1-9.9c0.1-4.4,0.1-7.7,0.1-10c0-6.7-0.6-12.1-1.9-16.2
		c-0.1-0.2-0.1-0.4-0.1-0.5c0-0.3,0.2-0.6,0.5-0.7c1-0.1,2.4-0.3,4.2-0.5c2.9-0.5,4.3-0.8,4.1-0.8c0.4,0,0.7,0.8,0.9,2.4
		c0.1,1.6,0.4,2.4,0.7,2.4c0.1,0,0.1,0,0.2-0.1c1.1-0.7,2.2-1.4,3.3-2.1c1.2-0.7,2.5-1.3,3.7-1.6c1.1-0.3,2.4-0.5,4.1-0.5
		C638.4,92.5,639.4,92.8,639.4,93.4z"/>
	<path class="st3" d="M678.4,109.8c0,2-0.9,3.4-2.6,4c-1.2,0.4-9.6,1.2-25.2,2.4c0.4,2.4,1.7,4.4,3.9,6.1c2.2,1.6,4.5,2.4,7,2.4
		c4.3,0,8.2-1.4,11.8-4.2c0.4-0.4,0.9-0.7,1.3-1.1c0.2,0,0.4,0,0.4,0.1c0.1,0.1,0.6,1,1.5,2.8c0.9,1.8,1.4,2.8,1.4,3
		c0,0.2-0.2,0.5-0.7,0.9c-4,4.2-9.1,6.3-15.3,6.3c-6.3,0-11.3-1.9-15.1-5.6c-3.7-3.8-5.6-8.8-5.6-15c0-5.6,1.8-10.5,5.4-14.6
		c3.8-4.3,8.4-6.5,13.9-6.5c5.1,0,9.4,1.9,12.8,5.6C676.7,100.1,678.4,104.6,678.4,109.8z M668.7,107.3c0-2.3-0.9-4.2-2.7-6
		s-3.8-2.6-6-2.6c-2.5,0-4.7,1-6.7,3s-2.9,4.3-2.9,6.8c0,0.6,0.5,0.9,1.5,0.9c4,0,8.8-0.4,14.4-1.2
		C667.9,107.9,668.7,107.6,668.7,107.3z"/>
</g>
</svg>
