<?xml version="1.0" encoding="utf-8"?>
<!-- Generator: Adobe Illustrator 21.0.0, SVG Export Plug-In . SVG Version: 6.00 Build 0)  -->
<svg version="1.1" id="Layer_1" xmlns="http://www.w3.org/2000/svg" xmlns:xlink="http://www.w3.org/1999/xlink" x="0px" y="0px"
	 viewBox="0 0 340.3 322.5" style="enable-background:new 0 0 340.3 322.5;" xml:space="preserve">
<style type="text/css">
	.st0{fill:#ED1C24;}
	.st1{fill:#FFFFFF;}
	.st2{fill:#ED1C24;stroke:#FFFFFF;stroke-width:8;stroke-miterlimit:10;}
</style>
<rect x="-458.4" y="-166.2" style="fill:none;" width="266.2" height="332.5"/>
<text transform="matrix(1 0 0 1 -458.4417 -133.0657)"><tspan x="0" y="0" style="font-family:'BerlinSansFB-Reg'; font-size:48px;">Rock</tspan><tspan x="0" y="57.6" style="font-family:'BerlinSansFB-Reg'; font-size:48px;">usic </tspan><tspan x="0" y="115.2" style="font-family:'BerlinSansFB-Reg'; font-size:48px;">Store</tspan></text>
<g>
	<path d="M181.5,96.6c0,0.2-0.2,0.3-0.7,0.3c-0.5,0-1.3,0-2.4-0.1c-1.1-0.1-1.8-0.1-2.4-0.1c-0.6,0-1.4,0-2.5,0.1s-2,0.1-2.5,0.1
		c-0.6,0-1.1-0.3-1.4-1c-0.9-1.8-3.3-7.6-7.4-17.1c-0.4-1-1.4-1.6-3-1.8c-0.4,0-1.6,0-3.7,0c-3.7,0-6,0.1-6.7,0.2
		c-0.6,0.1-0.9,0.8-0.9,2.1c0,1.9,0.1,4.7,0.3,8.5s0.3,6.6,0.3,8.5c0,0.6-0.3,0.9-0.8,0.9s-1.4-0.1-2.5-0.2
		c-1.1-0.1-1.9-0.2-2.5-0.2c-0.5,0-1.2,0-2.1,0.1s-1.7,0.1-2.1,0.1c-0.7,0-1-0.3-1-0.9c0-3,0.1-7.5,0.4-13.6s0.4-10.6,0.4-13.6
		c0-8.6-0.3-17.7-0.9-27.4l0-0.7c0-0.5,0.5-0.8,1.7-0.8c2.3,0,5.8-0.1,10.5-0.2s8.1-0.2,10.4-0.2c6,0,10.9,1.4,14.5,4.3
		c4,3.2,6,7.7,6,13.5c0,4-0.5,7.2-1.6,9.5c-1.1,2.4-3.3,4.8-6.3,7c-0.5,0.4-0.8,0.7-0.8,1c0,0.4,1.6,4,4.9,10.8
		C179.9,92.6,181.5,96.2,181.5,96.6z M170.4,59.7c0-4.9-1.4-8.2-4.2-9.8c-2.1-1.2-5.8-1.8-11.3-1.8c-4.4,0-6.6,0.4-6.7,1.1
		c-0.2,1.5-0.3,5.4-0.3,11.8v7.8c0.1,0.1,0.3,0.1,0.5,0.2c0.5,0.1,1.3,0.1,2.4,0.2c2.6,0.1,5.4,0.2,8.3,0.2
		C166.6,69.2,170.4,66,170.4,59.7z"/>
	<path d="M223.9,77.1c0,5.7-1.9,10.5-5.6,14.5c-3.8,4.2-8.5,6.2-14.1,6.2c-5.6,0-10.4-2.1-14.2-6.2c-3.7-4-5.6-8.8-5.6-14.5
		c0-5.7,1.9-10.5,5.6-14.5c3.8-4.1,8.5-6.1,14.2-6.1c5.6,0,10.3,2,14.1,6.1C222,66.7,223.9,71.5,223.9,77.1z M215.3,77.2
		c0-3.3-1-6.1-3.1-8.5c-2.1-2.5-4.8-3.7-8.1-3.7c-3.3,0-6,1.2-8.1,3.7c-2,2.4-3.1,5.2-3.1,8.5c0,3.3,1,6.1,3.1,8.5
		c2.2,2.5,4.9,3.8,8.1,3.8c3.2,0,5.9-1.3,8.1-3.8C214.3,83.3,215.3,80.5,215.3,77.2z"/>
	<path d="M258,60c0,0.6-0.3,1.9-0.9,4c-0.6,2.1-1.1,3.1-1.3,3.1c-1.2-0.5-2.4-1.1-3.7-1.6c-1.2-0.5-2.6-0.8-4-0.8
		c-3.3,0-6.1,1.2-8.3,3.7s-3.3,5.4-3.3,8.7c0,3.3,1.1,6.2,3.3,8.6c2.3,2.5,5.1,3.7,8.3,3.7c1.8,0,3.6-0.4,5.4-1.3s2.5-1.3,2.3-1.3
		c0.4,0,0.7,1.1,1.2,3.4c0.4,2.1,0.6,3.5,0.6,4.3c0,0.8-1.6,1.7-4.8,2.5c-2.7,0.7-4.6,1-5.9,1c-5.6,0-10.3-2.1-14.2-6.3
		c-3.8-4.1-5.7-8.9-5.7-14.6c0-5.8,1.8-10.6,5.5-14.6c3.8-4.1,8.5-6.2,14.2-6.2c3.8,0,7.3,1,10.4,2.9C257.7,59.5,258,59.8,258,60z"
		/>
	<path d="M303.1,69c0,7.1-3.3,11.8-9.8,14.2c0,1.4,2.7,5.7,8.1,12.9c0,0.4-1.4,0.7-4.1,0.8c-1.8,0.1-3.1,0.1-4,0.1
		c-1.9,0-3.1-0.4-3.6-1.2c-1.3-2.2-3.3-5.3-6-9.5c-0.3-0.5-3.3-0.7-8.8-0.6l-1.6,0v10.1c0,0.8-0.3,1.3-0.9,1.3c-0.9,0-2.1,0-3.8,0
		c-1.7,0-3,0-3.8,0c-0.6,0-0.9-0.5-0.9-1.6V70.1c0-3.3-0.1-8.3-0.4-14.9c-0.3-6.6-0.4-11.5-0.4-14.9c0-0.5,0.3-0.8,0.8-0.8
		c0.9,0,2.3-0.1,4.1-0.2c0.4,0,1.2-0.1,2.4-0.3c1-0.1,1.8-0.2,2.4-0.2c0.4,0,0.6,0.3,0.6,1c0,1.5-0.1,3.6-0.2,6.6
		c-0.1,2.9-0.2,5.1-0.2,6.6v10.5c0,0.6,0.1,0.9,0.4,0.9c0.7-0.5,1.6-1.3,2.9-2.4c4.6-3.5,8.9-5.3,13-5.3c4,0,7.3,1,9.8,3.1
		C301.7,62,303.1,65.1,303.1,69z M293.3,70.9c0-3.9-2.5-5.8-7.5-5.8c-3.7,0-8,2.5-12.7,7.5v6.1c2.2,0.4,4.9,0.6,8,0.6
		c3.1,0,5.8-0.6,8.1-1.8C291.9,76,293.3,73.8,293.3,70.9z"/>
</g>
<g>
	<path d="M223.1,163.9c0,2-0.1,5-0.2,9s-0.2,7-0.2,9c0,2,0.1,4.9,0.2,8.9s0.2,6.9,0.2,8.9c0,0.5-0.3,0.9-0.8,1.1
		c-0.2,0.1-3,0.1-8.3,0.1c-0.3,0-0.5-1-0.6-3.1c-0.1-2-0.2-3.1-0.5-3.1c-0.1,0-0.3,0.1-0.6,0.4c-4.5,3.9-9,5.9-13.4,5.9
		c-6,0-10-2.2-11.9-6.5c-1.2-2.7-1.8-7.5-1.8-14.5c0-6.3,0.5-11.6,1.5-16c0.2-1.1,0.7-1.6,1.3-1.6c0.8,0,2,0,3.5,0s2.8,0,3.5,0
		c0.5,0,0.8,0.3,0.8,0.9c0,1.1-0.2,2.8-0.5,5.3c-0.4,2.6-0.6,4.5-0.6,5.6c-0.1,1.6-0.1,3.4-0.1,5.4c0,4.7,0.3,7.9,1,9.6
		c1.2,2.9,3.8,4.4,7.8,4.4c1.7,0,3.7-0.8,6.1-2.5c2.5-1.8,3.7-3.5,3.8-5.1c0.1-2,0.2-9.2,0.2-21.5c0-1.3,0.6-2,1.7-2h6.7
		C222.7,162.5,223.1,163,223.1,163.9z"/>
	<path d="M250.5,188.3c0,4-1.6,7.3-4.8,9.7c-2.9,2.2-6.5,3.3-10.7,3.3c-1.6,0-2.5,0-2.8-0.1c-0.5-0.2-0.7-0.9-0.7-2
		c0-0.6-0.1-1.5-0.2-2.7c-0.1-1.2-0.2-2.1-0.2-2.6c0-0.4,0.2-0.6,0.7-0.7c0.4-0.1,0.9-0.1,1.5,0c0.8,0.1,1.2,0.1,1.2,0.1
		c5.1,0,7.7-1.6,7.7-4.7c0-1.5-1.1-2.9-3.4-4.1c-3.7-2-5.8-3.2-6.3-3.7c-2.3-1.9-3.4-4.4-3.4-7.6c0-4.1,1.5-7.2,4.6-9.5
		c2.8-2,6.3-3.1,10.5-3.1c0.4,0,0.7,0.2,0.8,0.5s0.5,1.5,1,3.3c0.5,1.8,0.8,3,0.8,3.3c0,0.3-0.3,0.5-0.8,0.6
		c-1.7,0.2-3.5,0.5-5.2,0.7c-2.1,0.6-3.1,1.7-3.1,3.4c0,1.2,1.1,2.5,3.3,3.7c3.3,1.8,5.3,3.1,6.2,3.9
		C249.4,182.3,250.5,185,250.5,188.3z"/>
	<path d="M266.9,152.2c0,3.3-1.9,5-5.6,5c-3.8,0-5.7-1.7-5.7-5c0-1.5,0.6-2.7,1.7-3.7c1.1-0.9,2.4-1.4,3.9-1.4
		c1.5,0,2.8,0.5,3.9,1.4S266.9,150.7,266.9,152.2z M266.6,163.2c0,2.1-0.1,5.2-0.4,9.5c-0.3,4.2-0.4,7.4-0.4,9.5c0,2,0,4.9,0.1,8.9
		c0.1,3.9,0.1,6.9,0.1,8.9c0,0.6-0.2,0.9-0.7,0.9h-7.9c-0.6,0-0.9-0.6-0.9-1.7c0-1.9,0-4.7,0.1-8.4c0.1-3.8,0.1-6.6,0.1-8.5
		c0-2.1-0.2-5.3-0.5-9.5c-0.3-4.2-0.5-7.4-0.5-9.5c0-0.5,0.3-0.7,0.9-0.7c0.5,0,1.2,0.1,2.3,0.2s1.8,0.2,2.3,0.2
		c0.5,0,1.3-0.1,2.3-0.2s1.8-0.2,2.3-0.2C266.4,162.4,266.6,162.7,266.6,163.2z"/>
	<path d="M303.1,163.9c0,0.6-0.3,1.9-0.9,4s-1.1,3.1-1.3,3.1c-1.2-0.5-2.4-1.1-3.7-1.6c-1.2-0.5-2.6-0.8-4-0.8
		c-3.3,0-6.1,1.2-8.3,3.7c-2.2,2.5-3.3,5.4-3.3,8.7c0,3.3,1.1,6.2,3.3,8.6c2.3,2.5,5.1,3.7,8.3,3.7c1.8,0,3.6-0.4,5.4-1.3
		c1.8-0.9,2.5-1.3,2.3-1.3c0.4,0,0.7,1.1,1.2,3.4c0.4,2.1,0.6,3.5,0.6,4.3c0,0.8-1.6,1.7-4.8,2.5c-2.7,0.7-4.6,1-5.9,1
		c-5.6,0-10.3-2.1-14.2-6.3c-3.8-4.1-5.7-8.9-5.7-14.6c0-5.8,1.8-10.6,5.5-14.6c3.8-4.1,8.5-6.2,14.2-6.2c3.8,0,7.3,1,10.4,2.9
		C302.8,163.4,303.1,163.7,303.1,163.9z"/>
</g>
<g>
	<path d="M163.6,244c-0.5,0.9-1.3,2.3-2.2,4.1c-0.3,0.8-0.8,2-1.6,3.6c-0.2,0.2-0.4,0.4-0.7,0.4c0,0-1.3-0.5-3.9-1.4
		s-4.8-1.4-6.5-1.4c-5,0-7.5,2.2-7.5,6.6c0,2.4,1.7,4.6,5.2,6.4c5.9,3.1,9.1,4.8,9.8,5.3c3.5,2.8,5.2,6.6,5.2,11.3
		c0,6.1-2.4,10.9-7.2,14.4c-4.3,3.1-9.6,4.7-15.9,4.7c-2.9,0-4.5-0.3-4.7-1c-0.1-1-0.4-2.5-0.7-4.5c-0.2-0.8-0.6-2-1-3.7
		c-0.1-0.2-0.1-0.5-0.1-0.7c0-0.4,0.2-0.6,0.6-0.6c0.7,0,1.6,0.1,3,0.2c1.3,0.1,2.4,0.2,3,0.2c8.4,0,12.6-2.7,12.6-8.1
		c0-2.7-1.7-5-5.1-6.9c-6.2-3.5-9.3-5.4-9.5-5.5c-3.4-2.8-5.1-6.5-5.1-11.1c0-5,1.7-9.1,5-12.1c3.2-2.9,7.4-4.4,12.5-4.4
		c2.2,0,4.7,0.4,7.5,1.1c3.1,0.8,5.4,1.7,6.9,2.8C163.3,243.6,163.4,243.7,163.6,244z"/>
	<path d="M192.4,289.5c0,0.6-0.1,1.4-0.2,2.4c-0.1,1.3-0.2,2.1-0.2,2.5c0,0.5-0.1,0.8-0.1,0.9c-0.1,0.2-0.4,0.4-0.8,0.6
		c-2.2,1.1-5.7,1.6-10.5,1.6c-6.3,0-9.5-2.9-9.5-8.6c0-2.3,0.1-5.8,0.2-10.4s0.2-8.1,0.2-10.4c0-1.1-0.6-1.7-1.7-1.8c-1,0-2,0-3,0
		c-0.6-0.1-0.9-1.2-0.9-3.3c0-0.8,0.1-1.6,0.2-2.5c0.1-0.7,0.5-1,1.3-1.2c0.7,0,1.3,0,2,0c1.2-0.1,1.9-0.6,1.9-1.7
		c0-1.1,0-2.7-0.1-5s-0.1-3.9-0.1-5c0-2,0.4-3,1.1-3c0.2,0,2.8,0.4,7.6,1.3c0.6,0.1,0.9,0.4,0.9,0.9c0,1.2-0.1,3-0.3,5.4
		c-0.2,2.4-0.3,4.2-0.3,5.4c0,0.8,0.4,1.2,1.1,1.2h9.8c0.5,0,0.7,0.2,0.7,0.5s0,0.8-0.1,1.6c-0.1,0.7-0.1,1.3-0.1,1.6
		c0,0.4,0,1,0,1.9c0,0.8,0,1.5,0,1.9c0,0.5-0.4,0.8-1.1,0.8c-1.1,0-2.7-0.1-4.9-0.2s-3.8-0.2-4.9-0.2c-0.2,0-0.4,0.8-0.5,2.3
		c-0.1,1.9-0.2,4.6-0.2,8.1v6.1c0,2.3,0.2,4,0.7,4.9c0.7,1.4,2,2.1,4,2.1c0.8,0,2.1-0.2,3.7-0.5c1.6-0.4,2.8-0.5,3.6-0.5
		C192.3,288.7,192.4,289,192.4,289.5z"/>
	<path d="M235.1,277.1c0,5.7-1.9,10.5-5.6,14.5c-3.8,4.2-8.5,6.2-14.1,6.2c-5.6,0-10.4-2.1-14.2-6.2c-3.7-4-5.6-8.8-5.6-14.5
		c0-5.7,1.9-10.5,5.6-14.5c3.8-4.1,8.5-6.1,14.2-6.1c5.6,0,10.3,2,14.1,6.1C233.3,266.7,235.1,271.5,235.1,277.1z M226.5,277.2
		c0-3.3-1-6.1-3.1-8.5c-2.1-2.5-4.8-3.7-8.1-3.7c-3.3,0-6,1.2-8.1,3.7c-2,2.4-3.1,5.2-3.1,8.5c0,3.3,1,6.1,3.1,8.5
		c2.2,2.5,4.9,3.8,8.1,3.8c3.2,0,5.9-1.3,8.1-3.8C225.5,283.3,226.5,280.5,226.5,277.2z"/>
	<path d="M264.1,258.7c0,3-0.2,5.7-0.6,8.1c-0.1,0.6-0.4,0.9-0.8,0.9c-0.6,0-1.4-0.1-2.6-0.2c-1.2-0.1-2-0.2-2.6-0.2
		c-3.4,0-5.6,1-6.6,2.9c-0.6,1.2-0.9,3.6-0.9,7.3v4.5c0,1.5,0.1,3.8,0.2,6.9c0.1,3.1,0.2,5.4,0.2,6.9c0,0.7-0.3,1.1-0.9,1.1
		c-0.8,0-2.1,0-3.8,0s-3,0-3.8,0c-0.6,0-0.9-0.3-0.9-1c0-2.2,0-5.5,0.1-9.9s0.1-7.7,0.1-10c0-6.7-0.6-12.1-1.9-16.2
		c-0.1-0.2-0.1-0.4-0.1-0.5c0-0.3,0.2-0.6,0.5-0.7c1-0.1,2.4-0.3,4.2-0.5c2.9-0.5,4.3-0.8,4.1-0.8c0.4,0,0.7,0.8,0.9,2.4
		s0.4,2.4,0.7,2.4c0.1,0,0.1,0,0.2-0.1c1.1-0.7,2.2-1.4,3.3-2.1c1.2-0.7,2.5-1.3,3.7-1.6c1.1-0.3,2.4-0.5,4.1-0.5
		C263.1,257.9,264.1,258.2,264.1,258.7z"/>
	<path d="M303.1,275.1c0,2-0.9,3.4-2.6,4c-1.2,0.4-9.6,1.2-25.2,2.4c0.4,2.4,1.7,4.4,3.9,6.1c2.2,1.6,4.5,2.4,7,2.4
		c4.3,0,8.2-1.4,11.8-4.2c0.4-0.4,0.9-0.7,1.3-1.1c0.2,0,0.4,0,0.4,0.1s0.6,1,1.5,2.8s1.4,2.8,1.4,3c0,0.2-0.2,0.5-0.7,0.9
		c-4,4.2-9.1,6.3-15.3,6.3c-6.3,0-11.3-1.9-15.1-5.6c-3.7-3.8-5.6-8.8-5.6-15c0-5.6,1.8-10.5,5.4-14.6c3.8-4.3,8.4-6.5,13.9-6.5
		c5.1,0,9.4,1.9,12.8,5.6C301.4,265.5,303.1,269.9,303.1,275.1z M293.4,272.6c0-2.3-0.9-4.2-2.7-6c-1.8-1.7-3.8-2.6-6-2.6
		c-2.5,0-4.7,1-6.7,3c-1.9,2-2.9,4.3-2.9,6.8c0,0.6,0.5,0.9,1.5,0.9c4,0,8.8-0.4,14.4-1.2C292.6,273.2,293.4,272.9,293.4,272.6z"/>
</g>
<g>
	<rect x="39.1" y="107.7" class="st0" width="4.9" height="117.1"/>
</g>
<g>
	<rect x="97" y="107.7" class="st0" width="4.9" height="117.1"/>
</g>
<g>
	<rect x="153.8" y="107.7" class="st0" width="4.9" height="117.1"/>
</g>
<g>
	<rect x="31.1" y="124.6" class="st0" width="20.3" height="20.3"/>
	<path class="st1" d="M53.3,146.8H29.2v-24.1h24.1V146.8z M33,143h16.5v-16.5H33V143z"/>
</g>
<g>
	<rect x="88.4" y="169.1" class="st0" width="20.3" height="20.3"/>
	<path class="st1" d="M110.7,191.3H86.5v-24.1h24.1V191.3z M90.3,187.5h16.5V171H90.3V187.5z"/>
</g>
<g>
	<rect x="146" y="124.6" class="st0" width="20.3" height="20.3"/>
	<path class="st1" d="M168.3,146.8h-24.1v-24.1h24.1V146.8z M147.9,143h16.5v-16.5h-16.5V143z"/>
</g>
<rect x="-515.6" y="89.1" class="st0" width="10.4" height="246.8"/>
<rect x="-393.5" y="89.1" class="st0" width="10.4" height="246.8"/>
<rect x="-274" y="89.1" class="st0" width="10.4" height="246.8"/>
<rect x="-532.5" y="118.5" class="st2" width="42.9" height="42.9"/>
<rect x="-411.6" y="191.1" class="st2" width="42.9" height="42.9"/>
<rect x="-290.3" y="118.5" class="st2" width="42.9" height="42.9"/>
</svg>
